<svg width="30" height="30" viewBox="0 0 24 24" fill="none" xmlns="http://www.w3.org/2000/svg">
<path fill-rule="evenodd" clip-rule="evenodd" d="M17.6127 6.38746C18.1293 6.90408 18.1293 7.74169 17.6127 8.25831L13.871 12L17.6127 15.7417C18.1293 16.2583 18.1293 17.0959 17.6127 17.6125C17.096 18.1292 16.2584 18.1292 15.7418 17.6125L12.0001 13.8708L8.25843 17.6125C7.74181 18.1292 6.90421 18.1292 6.38759 17.6125C5.87097 17.0959 5.87097 16.2583 6.38759 15.7417L10.1293 12L6.38759 8.25831C5.87097 7.74169 5.87097 6.90409 6.38759 6.38747C6.90421 5.87085 7.74181 5.87085 8.25843 6.38747L12.0001 10.1292L15.7418 6.38746C16.2584 5.87085 17.096 5.87085 17.6127 6.38746Z" fill="black"/>
</svg>
