<svg width="24" height="24" viewBox="0 0 24 24" fill="none" xmlns="http://www.w3.org/2000/svg">
<path d="M12.7348 12.002L16.8798 7.85705C16.9617 7.7614 17.0045 7.63836 16.9996 7.51252C16.9948 7.38668 16.9426 7.26731 16.8536 7.17826C16.7645 7.08922 16.6451 7.03705 16.5193 7.03219C16.3935 7.02733 16.2704 7.07013 16.1748 7.15205L12.0298 11.297L7.88477 7.14705C7.79062 7.05289 7.66292 7 7.52977 7C7.39662 7 7.26892 7.05289 7.17477 7.14705C7.08062 7.2412 7.02773 7.3689 7.02773 7.50205C7.02773 7.6352 7.08062 7.76289 7.17477 7.85705L11.3248 12.002L7.17477 16.147C7.12243 16.1919 7.07992 16.247 7.04991 16.3091C7.0199 16.3711 7.00303 16.4387 7.00037 16.5075C6.99771 16.5764 7.00932 16.645 7.03445 16.7092C7.05959 16.7734 7.09772 16.8316 7.14645 16.8804C7.19517 16.9291 7.25345 16.9672 7.31761 16.9924C7.38177 17.0175 7.45044 17.0291 7.5193 17.0264C7.58816 17.0238 7.65572 17.0069 7.71776 16.9769C7.77979 16.9469 7.83495 16.9044 7.87977 16.852L12.0298 12.707L16.1748 16.852C16.2704 16.934 16.3935 16.9768 16.5193 16.9719C16.6451 16.967 16.7645 16.9149 16.8536 16.8258C16.9426 16.7368 16.9948 16.6174 16.9996 16.4916C17.0045 16.3657 16.9617 16.2427 16.8798 16.147L12.7348 12.002Z" fill="white"/>
</svg>
