<svg width="18" height="18" viewBox="0 0 18 18" fill="none" xmlns="http://www.w3.org/2000/svg">
<path fill-rule="evenodd" clip-rule="evenodd" d="M11.159 2.03035C12.0377 1.15167 13.4623 1.15167 14.341 2.03035L15.9697 3.65903C16.8484 4.53771 16.8483 5.96233 15.9697 6.84101L10.2803 12.5303C10.1397 12.671 9.94891 12.75 9.75 12.75H6C5.58579 12.75 5.25 12.4142 5.25 12V8.25002C5.25 8.05111 5.32902 7.86034 5.46967 7.71969L11.159 2.03035ZM13.2803 3.09101C12.9874 2.79811 12.5126 2.79811 12.2197 3.09101L11.5607 3.75002L14.25 6.43936L14.909 5.78035C15.2019 5.48745 15.2019 5.01258 14.909 4.71969L13.2803 3.09101ZM13.1893 7.50002L10.5 4.81068L6.75 8.56068V11.25H9.43934L13.1893 7.50002ZM5.25 3.00002C4.00736 3.00002 3 4.00738 3 5.25002V12.75C3 13.9927 4.00736 15 5.25 15H12.75C13.9926 15 15 13.9927 15 12.75V10.5C15 10.0858 15.3358 9.75002 15.75 9.75002C16.1642 9.75002 16.5 10.0858 16.5 10.5V12.75C16.5 14.8211 14.8211 16.5 12.75 16.5H5.25C3.17893 16.5 1.5 14.8211 1.5 12.75V5.25002C1.5 3.17895 3.17893 1.50002 5.25 1.50002H7.5C7.91421 1.50002 8.25 1.8358 8.25 2.25002C8.25 2.66423 7.91421 3.00002 7.5 3.00002H5.25Z" fill="#D2C3F9"/>
</svg>
