<svg width="20" height="20" viewBox="0 0 20 20" fill="none" xmlns="http://www.w3.org/2000/svg">
<path fill-rule="evenodd" clip-rule="evenodd" d="M11.5656 3.08929C12.5419 2.11298 14.1248 2.11298 15.1011 3.08929L16.9107 4.89893C17.8871 5.87525 17.8871 7.45816 16.9107 8.43447L9.51185 15.8334H17.5C17.9602 15.8334 18.3333 16.2065 18.3333 16.6667C18.3333 17.1269 17.9602 17.5 17.5 17.5H3.33333C2.8731 17.5 2.5 17.1269 2.5 16.6667V12.5C2.5 12.279 2.5878 12.0671 2.74408 11.9108L11.5656 3.08929ZM7.15482 15.8334L13.8215 9.1667L10.8333 6.17854L4.16667 12.8452V15.8334H7.15482ZM12.0118 5.00003L15 7.98819L15.7322 7.25595C16.0577 6.93052 16.0577 6.40288 15.7322 6.07745L13.9226 4.2678C13.5972 3.94236 13.0695 3.94236 12.7441 4.2678L12.0118 5.00003Z" fill="black"/>
</svg>
