<svg width="24" height="24" viewBox="0 0 24 24" fill="none" xmlns="http://www.w3.org/2000/svg">
<path d="M12 14.6667C13.4482 14.6667 14.8371 15.2286 15.8612 16.2288C16.2325 16.5914 16.5448 17.0009 16.7921 17.443C17.0814 17.9603 17.0504 18.7933 16.8125 19.6066M12 14.6667C10.5518 14.6667 9.16286 15.2286 8.13881 16.2288C7.76752 16.5914 7.45522 17.0009 7.20794 17.443C6.91864 17.9603 6.94961 18.7933 7.18747 19.6066M12 14.6667C13.8849 14.6667 15.4128 13.1743 15.4128 11.3333C15.4128 9.49238 13.8849 8 12 8C10.1151 8 8.58716 9.49238 8.58716 11.3333C8.58716 13.1743 10.1151 14.6667 12 14.6667ZM16.8125 19.6066C19.3293 18.0109 21 15.2006 21 12C21 7.02944 16.9706 3 12 3C7.02944 3 3 7.02944 3 12C3 15.2006 4.67065 18.0109 7.18747 19.6066M16.8125 19.6066C15.4207 20.489 13.77 21 12 21C10.23 21 8.57934 20.489 7.18747 19.6066" stroke="black" stroke-width="2"/>
</svg>
