<svg width="12" height="12" viewBox="0 0 12 12" fill="none" xmlns="http://www.w3.org/2000/svg">
<path fill-rule="evenodd" clip-rule="evenodd" d="M4.07137 0.31842C5.38584 -0.127781 6.81435 -0.104405 8.11351 0.384564C8.79013 0.639227 9.5622 1.14396 10.2289 1.69869C10.3206 1.775 10.4119 1.85352 10.502 1.93387V0.75C10.502 0.335786 10.8378 2.01757e-08 11.252 2.01757e-08C11.6662 2.01757e-08 12.002 0.335786 12.002 0.75V3.93198C12.002 4.34619 11.6662 4.68198 11.252 4.68198H8.07001C7.6558 4.68198 7.32001 4.34619 7.32001 3.93198C7.32001 3.51777 7.6558 3.18198 8.07001 3.18198H9.6448C9.52582 3.07115 9.40023 2.96053 9.2695 2.85175C8.67089 2.35368 8.04528 1.96161 7.58514 1.78842C6.61077 1.4217 5.53938 1.40416 4.55353 1.73881C3.56769 2.07347 2.72837 2.73959 2.1786 3.6237C1.62883 4.5078 1.40262 5.55518 1.53851 6.58737C1.6744 7.61956 2.16399 8.5727 2.92385 9.28439C3.68371 9.99608 4.66683 10.4223 5.7057 10.4904C6.74457 10.5585 7.77491 10.2642 8.62116 9.65781C9.46742 9.05139 10.0772 8.17031 10.3467 7.16469C10.4539 6.76459 10.8651 6.52715 11.2652 6.63436C11.6653 6.74156 11.9028 7.15281 11.7956 7.55291C11.4363 8.89375 10.6232 10.0685 9.49488 10.8771C8.36654 11.6856 6.99275 12.0779 5.60759 11.9872C4.22243 11.8964 2.91161 11.3281 1.89846 10.3792C0.885311 9.43027 0.23253 8.15941 0.0513422 6.78316C-0.129846 5.4069 0.17177 4.0104 0.904798 2.83159C1.63783 1.65279 2.75691 0.76462 4.07137 0.31842Z" fill="#9170F7"/>
</svg>
