<svg width="24" height="24" viewBox="0 0 24 24" fill="none" xmlns="http://www.w3.org/2000/svg">
<path d="M5.3872 5.89495L7.09206 6.39843C8.1896 6.72256 9.33481 6.06137 9.60288 4.94881L10.0198 3.21855C10.6569 3.07549 11.3197 3 12 3C12.6804 3 13.3431 3.07549 13.9802 3.21855L14.3971 4.94881C14.6652 6.06137 15.8104 6.72256 16.908 6.39843L18.6128 5.89495C19.5085 6.86469 20.1936 8.03187 20.5954 9.32386L19.3051 10.5504C18.4756 11.3388 18.4756 12.6612 19.3051 13.4496L20.5954 14.6761C20.1936 15.9681 19.5085 17.1353 18.6128 18.1051L16.908 17.6016C15.8104 17.2774 14.6652 17.9386 14.3971 19.0512L13.9802 20.7814C13.3431 20.9245 12.6804 21 12 21C11.3197 21 10.6569 20.9245 10.0198 20.7814L9.60288 19.0512C9.33481 17.9386 8.1896 17.2774 7.09206 17.6016L5.38721 18.1051C4.49148 17.1353 3.80639 15.9681 3.40457 14.6761L4.69493 13.4496C5.5244 12.6612 5.5244 11.3388 4.69493 10.5504L3.40457 9.32386C3.80639 8.03187 4.49148 6.86469 5.3872 5.89495Z" stroke="black" stroke-width="2" stroke-linejoin="round"/>
<path d="M15 12C15 13.6569 13.6569 15 12 15C10.3432 15 9.00001 13.6569 9.00001 12C9.00001 10.3431 10.3432 9 12 9C13.6569 9 15 10.3431 15 12Z" stroke="black" stroke-width="2" stroke-linejoin="round"/>
</svg>
