<svg width="110" height="35" viewBox="0 0 110 35" fill="none" xmlns="http://www.w3.org/2000/svg">
<path d="M14.608 9.016C15.696 9.016 16.64 9.184 17.44 9.52C18.256 9.84 18.872 10.288 19.288 10.864C19.72 11.424 19.936 12.072 19.936 12.808C19.936 13.224 19.88 13.608 19.768 13.96C19.304 15.576 17.968 16.6 15.76 17.032C16.528 17.256 17.136 17.632 17.584 18.16C18.032 18.672 18.256 19.312 18.256 20.08C18.256 20.432 18.192 20.848 18.064 21.328C17.712 22.576 17 23.504 15.928 24.112C14.872 24.704 13.368 25 11.416 25H1.432C1.096 25 0.84 24.944 0.664 24.832C0.472 24.72 0.376 24.568 0.376 24.376C0.376 24.28 0.4 24.176 0.448 24.064C0.512 23.888 0.616 23.752 0.76 23.656C0.904 23.56 0.992 23.504 1.024 23.488C1.28 23.328 1.488 23.168 1.648 23.008C1.808 22.832 1.944 22.552 2.056 22.168L4.984 11.824C5.048 11.616 5.08 11.416 5.08 11.224C5.08 11.048 5.048 10.904 4.984 10.792C4.936 10.664 4.864 10.52 4.768 10.36C4.624 10.152 4.552 9.984 4.552 9.856C4.552 9.808 4.568 9.72 4.6 9.592C4.664 9.384 4.8 9.24 5.008 9.16C5.232 9.064 5.568 9.016 6.016 9.016H14.608ZM13.528 13.408C13.64 13.056 13.696 12.728 13.696 12.424C13.696 11.592 13.224 11.176 12.28 11.176H11.2L9.928 15.664H10.984C11.656 15.664 12.184 15.504 12.568 15.184C12.968 14.848 13.288 14.256 13.528 13.408ZM11.776 20.464C11.888 20.08 11.944 19.728 11.944 19.408C11.944 18.544 11.448 18.112 10.456 18.112H9.256L7.888 22.84H9.112C9.8 22.84 10.352 22.672 10.768 22.336C11.184 21.984 11.52 21.36 11.776 20.464ZM27.8258 12.304C29.6658 12.304 31.1378 12.648 32.2418 13.336C33.3458 14.008 33.8978 15.04 33.8978 16.432C33.8978 16.96 33.8018 17.56 33.6098 18.232L32.6258 21.544C32.6098 21.608 32.6018 21.688 32.6018 21.784C32.6018 22.04 32.7058 22.168 32.9138 22.168C33.1058 22.168 33.2658 22.088 33.3938 21.928C33.5378 21.752 33.6338 21.664 33.6818 21.664C33.7618 21.664 33.8258 21.72 33.8738 21.832C33.9378 21.944 33.9698 22.072 33.9698 22.216C33.9858 22.648 33.8178 23.088 33.4658 23.536C33.1298 23.984 32.6738 24.352 32.0978 24.64C31.5218 24.928 30.8898 25.072 30.2018 25.072C29.3698 25.072 28.6578 24.92 28.0658 24.616C27.4738 24.312 27.0658 23.864 26.8418 23.272C26.3618 23.848 25.7938 24.296 25.1378 24.616C24.4818 24.92 23.7778 25.072 23.0258 25.072C22.1778 25.072 21.4658 24.912 20.8898 24.592C20.3138 24.256 19.8818 23.832 19.5938 23.32C19.3218 22.792 19.1858 22.24 19.1858 21.664C19.1858 21.408 19.2098 21.16 19.2578 20.92C19.5138 19.816 20.0658 18.984 20.9138 18.424C21.7778 17.864 22.8018 17.584 23.9858 17.584C25.3138 17.584 26.6178 17.792 27.8978 18.208L28.4978 16.624C28.7058 15.952 28.8098 15.432 28.8098 15.064C28.7938 14.68 28.6658 14.392 28.4258 14.2C28.1858 14.008 27.8178 13.912 27.3218 13.912C27.4178 14.168 27.4658 14.432 27.4658 14.704C27.4658 15.296 27.2418 15.808 26.7938 16.24C26.3458 16.672 25.7058 16.888 24.8738 16.888C24.0898 16.888 23.4738 16.72 23.0258 16.384C22.5938 16.032 22.3778 15.6 22.3778 15.088C22.3778 14.288 22.8258 13.624 23.7218 13.096C24.6178 12.568 25.9858 12.304 27.8258 12.304ZM26.4818 19.576C26.0338 19.576 25.6658 19.752 25.3778 20.104C25.1058 20.44 24.9698 20.808 24.9698 21.208C24.9698 21.464 25.0258 21.672 25.1378 21.832C25.2658 21.992 25.4418 22.072 25.6658 22.072C25.8738 22.072 26.0978 21.992 26.3378 21.832C26.5938 21.656 26.7778 21.4 26.8898 21.064L27.3938 19.648C27.1218 19.6 26.8178 19.576 26.4818 19.576ZM47.2009 12.208C48.3849 12.208 49.3289 12.632 50.0329 13.48C50.7529 14.328 51.1129 15.448 51.1129 16.84C51.1129 17.56 51.0249 18.264 50.8489 18.952C50.3369 21.016 49.4569 22.576 48.2089 23.632C46.9769 24.688 45.5529 25.216 43.9369 25.216C43.0249 25.216 42.2329 25.064 41.5609 24.76C40.9049 24.44 40.3769 23.992 39.9769 23.416L39.1129 24.16C38.7769 24.448 38.4489 24.664 38.1289 24.808C37.8089 24.936 37.4409 25 37.0249 25H35.9689C35.5689 25 35.2569 24.92 35.0329 24.76C34.8249 24.584 34.7209 24.336 34.7209 24.016C34.7209 23.872 34.7449 23.704 34.7929 23.512L38.8009 10.48C38.8489 10.336 38.8729 10.216 38.8729 10.12C38.8729 9.848 38.7049 9.592 38.3689 9.352C38.2089 9.208 38.0969 9.096 38.0329 9.016C37.9689 8.92 37.9609 8.8 38.0089 8.656C38.1209 8.288 38.6249 7.968 39.5209 7.696C40.4329 7.408 41.3849 7.264 42.3769 7.264C43.3049 7.264 43.9849 7.448 44.4169 7.816C44.8649 8.168 45.0889 8.648 45.0889 9.256C45.0889 9.592 45.0329 9.928 44.9209 10.264L43.9129 13.528C44.8409 12.648 45.9369 12.208 47.2009 12.208ZM44.4889 18.808C44.8089 17.72 44.9689 16.84 44.9689 16.168C44.9689 15.432 44.7529 15.064 44.3209 15.064C43.9369 15.064 43.5769 15.264 43.2409 15.664L41.6809 20.752L41.5369 21.208C41.4569 21.448 41.4169 21.696 41.4169 21.952C41.4169 22.512 41.6809 22.792 42.2089 22.792C42.5929 22.792 42.9609 22.512 43.3129 21.952C43.6649 21.392 44.0569 20.344 44.4889 18.808ZM63.7551 12.208C64.9871 12.208 65.9551 12.616 66.6591 13.432C67.3631 14.248 67.7151 15.36 67.7151 16.768C67.7151 17.52 67.6111 18.312 67.4031 19.144C66.9231 21.128 66.0271 22.64 64.7151 23.68C63.4031 24.704 61.8831 25.216 60.1551 25.216C59.0511 25.216 58.0911 24.984 57.2751 24.52L56.5071 27.088C56.4431 27.264 56.4111 27.432 56.4111 27.592C56.4111 27.768 56.4511 27.912 56.5311 28.024C56.6111 28.152 56.7151 28.272 56.8431 28.384C56.9711 28.512 57.0511 28.616 57.0831 28.696C57.1311 28.776 57.1391 28.872 57.1071 28.984C57.0431 29.192 56.8911 29.336 56.6511 29.416C56.4111 29.512 56.0431 29.56 55.5471 29.56H50.0511C49.6351 29.56 49.3391 29.488 49.1631 29.344C48.9711 29.216 48.9151 29.048 48.9951 28.84C49.0271 28.712 49.0831 28.608 49.1631 28.528C49.2431 28.448 49.3551 28.376 49.4991 28.312C49.7391 28.152 49.9311 27.984 50.0751 27.808C50.2191 27.648 50.3471 27.384 50.4591 27.016L53.9631 15.52C54.0111 15.376 54.0351 15.256 54.0351 15.16C54.0351 14.984 53.9951 14.848 53.9151 14.752C53.8351 14.64 53.7151 14.528 53.5551 14.416C53.3951 14.288 53.2831 14.176 53.2191 14.08C53.1551 13.984 53.1471 13.856 53.1951 13.696C53.2911 13.328 53.7951 13.008 54.7071 12.736C55.6191 12.448 56.5711 12.304 57.5631 12.304C58.2671 12.304 58.8431 12.48 59.2911 12.832C59.7551 13.184 60.0191 13.672 60.0831 14.296C61.1711 12.904 62.3951 12.208 63.7551 12.208ZM60.9711 19.336C61.3551 17.912 61.5471 16.928 61.5471 16.384C61.5471 16.048 61.4911 15.832 61.3791 15.736C61.2831 15.624 61.1391 15.568 60.9471 15.568C60.8031 15.568 60.6191 15.64 60.3951 15.784C60.1711 15.912 59.9471 16.136 59.7231 16.456L57.8271 22.744C58.0191 22.936 58.2511 23.032 58.5231 23.032C58.9551 23.032 59.3631 22.792 59.7471 22.312C60.1471 21.816 60.5551 20.824 60.9711 19.336ZM77.0849 12.304C79.2609 12.304 80.8609 12.744 81.8849 13.624C82.9249 14.504 83.4449 15.656 83.4449 17.08C83.4449 17.56 83.3809 18.096 83.2529 18.688C82.9489 20 82.3809 21.152 81.5489 22.144C80.7169 23.12 79.6929 23.88 78.4769 24.424C77.2769 24.952 75.9729 25.216 74.5649 25.216C72.3409 25.216 70.6929 24.776 69.6209 23.896C68.5649 23 68.0369 21.816 68.0369 20.344C68.0369 19.848 68.1009 19.296 68.2289 18.688C68.5329 17.44 69.1089 16.336 69.9569 15.376C70.8209 14.4 71.8689 13.648 73.1009 13.12C74.3489 12.576 75.6769 12.304 77.0849 12.304ZM77.0129 14.44C76.6769 14.44 76.3169 14.744 75.9329 15.352C75.5649 15.944 75.1249 17.072 74.6129 18.736C74.1009 20.4 73.8449 21.568 73.8449 22.24C73.8449 22.592 73.9009 22.832 74.0129 22.96C74.1249 23.072 74.2769 23.128 74.4689 23.128C74.8049 23.16 75.1489 22.872 75.5009 22.264C75.8689 21.656 76.3249 20.472 76.8689 18.712C77.3649 17.16 77.6129 16.032 77.6129 15.328C77.6129 14.992 77.5569 14.76 77.4449 14.632C77.3489 14.504 77.2049 14.44 77.0129 14.44ZM92.8349 12.304C95.0109 12.304 96.6109 12.744 97.6349 13.624C98.6749 14.504 99.1949 15.656 99.1949 17.08C99.1949 17.56 99.1309 18.096 99.0029 18.688C98.6989 20 98.1309 21.152 97.2989 22.144C96.4669 23.12 95.4429 23.88 94.2269 24.424C93.0269 24.952 91.7229 25.216 90.3149 25.216C88.0909 25.216 86.4429 24.776 85.3709 23.896C84.3149 23 83.7869 21.816 83.7869 20.344C83.7869 19.848 83.8509 19.296 83.9789 18.688C84.2829 17.44 84.8589 16.336 85.7069 15.376C86.5709 14.4 87.6189 13.648 88.8509 13.12C90.0989 12.576 91.4269 12.304 92.8349 12.304ZM92.7629 14.44C92.4269 14.44 92.0669 14.744 91.6829 15.352C91.3149 15.944 90.8749 17.072 90.3629 18.736C89.8509 20.4 89.5949 21.568 89.5949 22.24C89.5949 22.592 89.6509 22.832 89.7629 22.96C89.8749 23.072 90.0269 23.128 90.2189 23.128C90.5549 23.16 90.8989 22.872 91.2509 22.264C91.6189 21.656 92.0749 20.472 92.6189 18.712C93.1149 17.16 93.3629 16.032 93.3629 15.328C93.3629 14.992 93.3069 14.76 93.1949 14.632C93.0989 14.504 92.9549 14.44 92.7629 14.44ZM106.484 7.264C107.412 7.264 108.092 7.44 108.524 7.792C108.972 8.144 109.196 8.624 109.196 9.232C109.196 9.584 109.14 9.928 109.028 10.264L105.26 22.504C105.212 22.696 105.188 22.864 105.188 23.008C105.188 23.216 105.228 23.384 105.308 23.512C105.388 23.624 105.5 23.736 105.644 23.848C105.756 23.96 105.836 24.056 105.884 24.136C105.932 24.2 105.94 24.288 105.908 24.4C105.828 24.608 105.668 24.76 105.428 24.856C105.188 24.952 104.82 25 104.324 25H98.8521C98.4361 25 98.1321 24.936 97.9401 24.808C97.7481 24.664 97.6841 24.48 97.7481 24.256C97.8121 24.064 97.9801 23.896 98.2521 23.752C98.4921 23.624 98.6921 23.472 98.8521 23.296C99.0121 23.12 99.1481 22.84 99.2601 22.456L102.908 10.48C102.956 10.336 102.98 10.216 102.98 10.12C102.98 9.944 102.932 9.8 102.836 9.688C102.756 9.576 102.644 9.464 102.5 9.352C102.34 9.224 102.22 9.112 102.14 9.016C102.076 8.92 102.068 8.792 102.116 8.632C102.212 8.264 102.716 7.944 103.628 7.672C104.54 7.4 105.492 7.264 106.484 7.264Z" fill="#201F21"/>
</svg>
